<svg width="270" height="250" xmlns="http://www.w3.org/2000/svg" xmlns:xlink="http://www.w3.org/1999/xlink">
 <!-- Generator: Sketch Beta 42 (36780) - http://www.bohemiancoding.com/sketch -->
 <title>Group 8</title>
 <desc>Created with Sketch Beta.</desc>
 <defs>
  <path d="m26.05141,135.02696l52.10317,0l26.05162,45.01765l-52.10236,0l-26.05249,-45.01765l-26.05135,-45.0095l26.05161,-45.00899l26.05162,45.00899l26.05141,-45.00847l52.10363,0l0.00041,0l-26.05248,-45.00899l52.10323,0l26.05141,45.00864l0.00036,0l26.05172,45.00882l-52.10313,0l-26.05152,-45.00847l-26.05207,-45.00899l-10.42065,18.0036l10.4203,-18.0036l-52.10236,0l-26.05248,45.00899l26.05217,45.00855l-5.21027,9.00189l5.21032,-9.0018l26.05161,45.00899l-52.10282,0l-0.00061,0.00034zm91.98611,21.11733l12.22116,-21.11767l26.05075,45.01765l-52.10277,0l-26.05182,-45.01731l52.10323,0l-12.22054,21.11733l-0.00001,0z" id="path-2"/>
  <linearGradient x1="50%" y1="0%" x2="50%" y2="97.5027902%" id="linearGradient-1">
   <stop stop-color="#52D057" offset="0%"/>
   <stop stop-color="#5686DC" offset="100%"/>
  </linearGradient>
  <linearGradient x1="50%" y1="0%" x2="50%" y2="100%" id="linearGradient-4">
   <stop stop-color="#33B64D" offset="0%"/>
   <stop stop-color="#30A7D8" offset="100%"/>
  </linearGradient>
  <linearGradient x1="50%" y1="0%" x2="50%" y2="100%" id="linearGradient-5">
   <stop stop-color="#33B36C" offset="0%"/>
   <stop stop-color="#208B5D" offset="100%"/>
  </linearGradient>
 </defs>
 <g>
  <title>background</title>
  <rect fill="none" id="canvas_background" height="252" width="272" y="-1" x="-1"/>
 </g>
 <g>
  <title>Layer 1</title>
  <g id="Page-1" fill="none" fill-rule="evenodd">
   <g id="Desktop-HD">
    <g id="Page-1">
     <g id="Group-8">
      <g id="Group">
       <polygon id="Stroke-1" stroke="#CECECE" points="102.75360107421875,181.34536743164062 102.7860107421875,181.39920043945312 102.72125244140625,181.39920043945312 70.38848876953125,125.50302124023438 70.35614013671875,125.44918823242188 70.38848876953125,125.39535522460938 70.42083740234375,125.44918823242188 "/>
       <polygon id="Stroke-3" stroke="#F2F2F2" points="232.24658203125,69.4884033203125 232.2142333984375,69.54224395751953 199.8814697265625,125.44918823242188 199.81671142578125,125.44918823242188 167.48394775390625,69.54224395751953 167.4515380859375,69.4884033203125 102.7860107421875,69.4884033203125 135.151123046875,13.538398742675781 199.8814697265625,13.538398742675781 "/>
       <polyline id="Stroke-5" stroke="#F2F2F2" points="167.35443115234375,181.68992614746094 199.5469970703125,237.34921264648438 135.151123046875,237.34921264648438 "/>
       <polygon id="Stroke-10" stroke="#F2F2F2" points="102.7860107421875,181.02243041992188 70.42083740234375,236.97244262695312 38.05572509765625,181.02243041992188 37.990966796875,181.02243041992188 5.658203125,125.12625122070312 5.690553188323975,125.07241821289062 70.42083740234375,125.07241821289062 102.75360107421875,180.96859741210938 "/>
       <polygon id="Stroke-12" stroke="#F2F2F2" points="199.81671142578125,13.161521911621094 167.48394775390625,69.05768585205078 167.4515380859375,69.11152648925781 102.72125244140625,69.11152648925781 70.38848876953125,13.215354919433594 70.42083740234375,13.161521911621094 "/>
       <polygon id="Stroke-14" stroke="#F2F2F2" points="264.5469970703125,125.07231140136719 264.41754150390625,125.3092041015625 264.27728271484375,125.07231140136719 199.81671142578125,125.07231140136719 167.48394775390625,69.16536712646484 167.4515380859375,69.11152648925781 232.18182373046875,69.11152648925781 232.2142333984375,69.16536712646484 "/>
       <polygon id="Stroke-16" stroke="#F2F2F2" points="167.51629638671875,181.02243041992188 167.35443115234375,181.31317138671875 135.151123046875,236.97244262695312 102.7860107421875,181.02243041992188 167.18182373046875,181.02243041992188 167.32208251953125,180.78553771972656 167.35443115234375,180.731689453125 167.48394775390625,180.96859741210938 "/>
       <polygon id="Stroke-18" stroke="#F2F2F2" points="135.151123046875,236.97232055664062 70.42083740234375,236.97232055664062 38.05572509765625,181.02232360839844 70.38848876953125,125.12615966796875 70.42083740234375,125.07231140136719 102.75360107421875,180.96849060058594 102.7860107421875,181.02232360839844 "/>
       <polygon id="Stroke-20" stroke="#F2F2F2" points="167.51629638671875,69.11152648925781 167.48394775390625,69.16536712646484 167.4515380859375,69.11152648925781 102.72125244140625,69.11152648925781 70.38848876953125,125.01846313476562 38.05572509765625,69.11152648925781 70.38848876953125,13.215354919433594 70.42083740234375,13.161521911621094 135.151123046875,13.161521911621094 167.48394775390625,69.05768585205078 "/>
       <polygon id="Stroke-22" stroke="#F2F2F2" points="102.75360107421875,180.96849060058594 102.72125244140625,181.02232360839844 37.990966796875,181.02232360839844 5.658203125,125.12615966796875 5.6258544921875,125.07231140136719 37.990966796875,69.11152648925781 102.72125244140625,69.11152648925781 70.38848876953125,125.01846313476562 70.42083740234375,125.07231140136719 "/>
       <g id="Logo-Copy">
        <g id="Group-10">
         <g id="Page-1">
          <g id="Path-35">
           <mask id="mask-3" transform="translate(0,-1) translate(0,-1) translate(0,-1) translate(0,-1) translate(0,-1) translate(0,-1) translate(0,-1) translate(0,-1) translate(0,-1) translate(0,-1) translate(0,-1) translate(0,-1) translate(0,1) translate(0,1) translate(0,1) translate(0,1) translate(0,1) translate(0,1) translate(0,1) translate(0,1) translate(0,1) translate(0,1) translate(0,1) translate(0,1) translate(0,1) translate(0,1) translate(0,1) translate(0,1) translate(0,1) translate(0,1) translate(0,1) translate(0,1) translate(0,1) translate(0,1) translate(0,1) translate(0,1) translate(0,-1) translate(0,-1) translate(0,-1) translate(0,-1) translate(0,-1) translate(0,-1) translate(0,-1) translate(0,-1) translate(0,-1) translate(0,-1) translate(0,-1) translate(0,-1) translate(1,0) translate(1,0) translate(1,0) translate(1,0) translate(-1,0) translate(-1,0) translate(-1,0) translate(-1,0) translate(-1,0) translate(-1,0) translate(-1,0) translate(-1,0) translate(1,0) translate(1,0) translate(1,0) translate(1,0) translate(1,0) translate(1,0) translate(1,0) translate(1,0) translate(-15,-6) translate(15,1) translate(-12,-20) translate(-27,23) translate(-76,-24) translate(830,114) translate(26,22) translate(88,51) translate(-802,-126) ">
            <use xlink:href="#path-2" id="svg_1"/>
           </mask>
           <use id="Mask" fill="url(#linearGradient-1)" xlink:href="#path-2" y="35" x="31"/>
           <path d="m-57.47939,91.84664c8.50327,4.15739 60.8787,91.41942 130.81972,66.69038c69.94102,-24.72903 59.06168,-184.24781 204.71506,-111.26938c145.65337,72.97843 -131.57322,264.10126 -131.57322,264.10126l-246.33741,-93.02192c0,0 33.87258,-130.65773 42.37585,-126.50034z" fill="url(#linearGradient-4)" mask="url(#mask-3)" id="svg_2"/>
          </g>
          <polygon id="Fill-12" fill="url(#linearGradient-5)" points="122.99017333984375,151.22384643554688 109.96435546875,128.71847534179688 122.99017333984375,106.21311950683594 149.04180908203125,106.21311950683594 162.067626953125,128.71847534179688 149.04180908203125,151.22384643554688 "/>
         </g>
        </g>
       </g>
      </g>
      <g id="Page-1" stroke="#F2F2F2">
       <polygon id="Stroke-1" points="-56.05877685546875,-38 -62.8834228515625,-26.31922149658203 -62.9403076171875,-26.31922149658203 -62.91070556640625,-26.368675231933594 -56.11566162109375,-38 "/>
       <polygon id="Stroke-3" points="-35.6417236328125,-26.31922149658203 -42.436767578125,-14.687896728515625 -42.436767578125,-14.685646057128906 -42.46636962890625,-14.638442993164062 -56.11566162109375,-14.638442993164062 -62.91070556640625,-26.269760131835938 -62.91070556640625,-26.272010803222656 -62.9403076171875,-26.31922149658203 -62.91070556640625,-26.368675231933594 -56.11566162109375,-38 -42.46636962890625,-38 -42.436767578125,-37.95054626464844 "/>
       <polygon id="Stroke-5" points="-42.11676025390625,-14.368675231933594 -42.11676025390625,-14.366432189941406 -42.1463623046875,-14.319221496582031 -55.73876953125,-14.319221496582031 -62.56341552734375,-2.6384429931640625 -69.3880615234375,-14.319221496582031 -62.5906982421875,-25.950546264648438 -62.5906982421875,-25.952789306640625 -62.56341552734375,-26 -48.91412353515625,-26 "/>
       <polygon id="Stroke-7" points="-62.58294677734375,-26 -69.4075927734375,-14.319221496582031 -83,-14.319221496582031 -76.17535400390625,-26 "/>
       <polygon id="Stroke-9" points="-42.46636962890625,-37.95054626464844 -49.26373291015625,-26.31922149658203 -62.91302490234375,-26.31922149658203 -62.9403076171875,-26.368675231933594 -56.14520263671875,-38 -42.49591064453125,-38 "/>
       <polygon id="Stroke-11" points="-55.701416015625,-14.319221496582031 -62.52606201171875,-2.6384429931640625 -76.17535400390625,-2.6384429931640625 -83,-14.319221496582031 -76.17535400390625,-26 -62.52606201171875,-26 "/>
       <polygon id="Stroke-13" points="-56.13519287109375,-38 -62.9598388671875,-26.31922149658203 -76.55224609375,-26.31922149658203 -69.72760009765625,-38 "/>
      </g>
      <g id="Page-1">
       <polyline id="Stroke-1" stroke="#F2F2F2" points="-74.89971923828125,-18.98316192626953 -66.9376220703125,-32.859375 -51.01348876953125,-32.859375 "/>
       <polyline id="Stroke-2" stroke="#F2F2F2" points="-35.07427978515625,-32.85926818847656 -43.036376953125,-18.983055114746094 -58.96051025390625,-18.983055114746094 "/>
       <g id="Group-9" stroke="#F2F2F2">
        <polyline id="Stroke-3" points="-58.96051025390625,8.769004821777344 -66.922607421875,-5.107208251953125 -58.96051025390625,-18.983154296875 -43.03631591796875,-18.983154296875 -35.07421875,-5.107208251953125 "/>
        <polygon id="Stroke-5" points="-51.01348876953125,-5.107071399688721 -58.97552490234375,-18.983291625976562 -51.01348876953125,-32.85923767089844 -35.08929443359375,-32.85923767089844 -27.127197265625,-18.983291625976562 -35.08929443359375,-5.107071399688721 "/>
        <polygon id="Stroke-7" points="-74.88470458984375,8.769004821777344 -82.8468017578125,-5.107208251953125 -74.88470458984375,-18.983154296875 -58.96051025390625,-18.983154296875 -50.9984130859375,-5.107208251953125 -58.96051025390625,8.769004821777344 "/>
       </g>
       <polyline id="Stroke-10" stroke="#F2F2F2" points="-50.9984130859375,-32.85926818847656 -58.96051025390625,-18.983055114746094 -74.88470458984375,-18.983055114746094 "/>
       <g id="Group-31">
        <polyline id="Stroke-11" stroke="#F2F2F2" points="-58.97552490234375,-18.98316192626953 -66.9376220703125,-5.1069488525390625 -82.86181640625,-5.1069488525390625 "/>
        <path d="m-67.49286,-37.01875c0.36626,0.6321 0.02787,1.51682 -0.75613,1.97694c-0.78427,0.45985 -1.71609,0.32046 -2.08235,-0.31164c-0.36493,-0.62996 -0.02654,-1.51468 0.75746,-1.97453c0.78426,-0.46012 1.71609,-0.32046 2.08102,0.30923z" id="Stroke-13" stroke="#F2F2F2"/>
        <path d="m-61.72855,-26.97517c0.36626,0.6321 0.02787,1.51682 -0.75613,1.97694c-0.78426,0.45985 -1.71609,0.32046 -2.08235,-0.31164c-0.36493,-0.62996 -0.02654,-1.51468 0.75746,-1.97453c0.78427,-0.46012 1.7161,-0.32046 2.08102,0.30923z" id="Stroke-15" stroke="#F2F2F2"/>
        <path d="m-67.49286,-37.01875l4.72311,8.1505c0.36493,0.62969 0.02654,1.51441 -0.75746,1.97453c-0.78426,0.46012 -1.71609,0.32046 -2.08102,-0.30924l-4.72311,-8.15049c0.36626,0.6321 1.29808,0.77149 2.08235,0.31164c0.784,-0.46012 1.12239,-1.34484 0.75613,-1.97694" id="Fill-17" fill="#FFFFFF"/>
        <path d="m-67.49286,-37.01875l4.72311,8.1505c0.36493,0.62969 0.02654,1.51441 -0.75746,1.97453c-0.78426,0.46012 -1.71609,0.32046 -2.08102,-0.30924l-4.72311,-8.15049c0.36626,0.6321 1.29808,0.77149 2.08235,0.31164c0.784,-0.46012 1.12239,-1.34484 0.75613,-1.97694z" id="Stroke-19" stroke="#F2F2F2"/>
        <path d="m-44.32398,-3.40205c-0.72721,-0.00801 -1.30818,-0.7544 -1.29809,-1.66743c0.01009,-0.9133 0.60724,-1.64634 1.33445,-1.63832c0.72455,0.00801 1.30551,0.75413 1.29543,1.66743c-0.01009,0.91329 -0.60725,1.64633 -1.33179,1.63832" id="Fill-21" fill="#FFFFFF"/>
        <path d="m-44.32398,-3.40205c-0.72721,-0.00801 -1.30818,-0.7544 -1.29809,-1.66743c0.01009,-0.9133 0.60724,-1.64634 1.33445,-1.63832c0.72455,0.00801 1.30551,0.75413 1.29543,1.66743c-0.01009,0.91329 -0.60725,1.64633 -1.33179,1.63832z" id="Stroke-23" stroke="#F2F2F2"/>
        <path d="m-58.69013,-3.45418c-0.72721,-0.00801 -1.30818,-0.7544 -1.29809,-1.66743c0.01009,-0.91329 0.60724,-1.64633 1.33445,-1.63832c0.72455,0.00801 1.30551,0.75413 1.29543,1.66743c-0.01009,0.9133 -0.60724,1.64634 -1.33179,1.63832z" id="Stroke-25" stroke="#F2F2F2"/>
        <path d="m-44.32398,-3.40205l-9.37616,-0.10441c-0.72455,-0.00801 -1.30551,-0.75414 -1.29543,-1.66744c0.01009,-0.91329 0.60724,-1.64633 1.33179,-1.63832l9.37616,0.10442c-0.72721,-0.00802 -1.32436,0.72502 -1.33445,1.63832c-0.01009,0.91303 0.57088,1.65942 1.29809,1.66743" id="Fill-27" fill="#FFFFFF"/>
        <path d="m-44.32398,-3.40205l-9.37616,-0.10441c-0.72455,-0.00801 -1.30551,-0.75414 -1.29543,-1.66744c0.01009,-0.91329 0.60724,-1.64633 1.33179,-1.63832l9.37616,0.10442c-0.72721,-0.00802 -1.32436,0.72502 -1.33445,1.63832c-0.01009,0.91303 0.57088,1.65942 1.29809,1.66743z" id="Stroke-29" stroke="#F2F2F2"/>
       </g>
      </g>
      <g id="Page-1" stroke="#EEEEEE">
       <polygon id="Stroke-1" points="-56.8388671875,-26.758651733398438 -63.379150390625,-15.517303466796875 -76.459716796875,-15.517303466796875 -83,-26.758651733398438 -76.459716796875,-38 -63.379150390625,-38 "/>
       <polygon id="Stroke-3" points="-37.8388671875,-15.758651733398438 -44.350830078125,-4.567070007324219 -44.379150390625,-4.517303466796875 -57.459716796875,-4.517303466796875 -63.9716796875,-15.708892822265625 -64,-15.758651733398438 -63.9716796875,-15.80841064453125 -57.459716796875,-27 -44.379150390625,-27 -44.350830078125,-26.950241088867188 "/>
       <polygon id="Stroke-5" points="-43.8671875,-4.808418273925781 -43.89556884765625,-4.7586517333984375 -56.91943359375,-4.7586517333984375 -63.459716796875,6.482696533203125 -70,-4.7586517333984375 -63.488037109375,-15.950241088867188 -63.459716796875,-16 -50.379150390625,-16 "/>
       <polygon id="Stroke-7" points="-63.43585205078125,-15.758651733398438 -69.97613525390625,-4.517303466796875 -83,-4.517303466796875 -76.459716796875,-15.758651733398438 -83,-27 -69.97613525390625,-27 "/>
       <polygon id="Stroke-9" points="-43.8671875,-26.708892822265625 -50.379150390625,-15.517303466796875 -63.459716796875,-15.517303466796875 -63.488037109375,-15.567070007324219 -70,-26.758651733398438 -63.459716796875,-38 -56.91943359375,-26.758651733398438 -43.89556884765625,-26.758651733398438 "/>
       <polygon id="Stroke-11" points="-56.8388671875,-4.7586517333984375 -63.379150390625,6.482696533203125 -76.459716796875,6.482696533203125 -83,-4.7586517333984375 -76.459716796875,-16 -63.379150390625,-16 "/>
      </g>
     </g>
    </g>
   </g>
  </g>
 </g>
</svg>