<svg width="100" height="40" xmlns="http://www.w3.org/2000/svg" version="1.1">
 <!-- Generator: Sketch Beta 42 (36780) - http://www.bohemiancoding.com/sketch -->
 <title>Logo</title>
 <desc>Created with Sketch Beta.</desc>

 <g>
  <title>background</title>
  <rect fill="none" id="canvas_background" height="42" width="102" y="-1" x="-1"/>
 </g>
 <g>
  <title>Layer 1</title>
  <g fill-rule="evenodd" fill="none" id="Page-1">
   <g fill="#494949" id="Developer-Copy-3">
    <g id="logo">
     <g id="Logo">
      <g id="Group-10">
       <path id="egg" d="m78.11774,5.32344l-0.30665,2.61562c-1.44962,0 -2.35562,0.21094 -2.71803,0.63282l0,0.18281c0.54826,0.70313 0.82238,1.49062 0.82238,2.3625c0,1.34063 -0.49017,2.48437 -1.47052,3.43125c-0.98036,0.94688 -2.44157,1.42031 -4.38369,1.42031c-0.94783,0 -1.72374,-0.075 -2.32775,-0.225c-0.4925,0.225 -0.73875,0.52031 -0.73875,0.88594c0,0.57188 0.29504,0.97265 0.88511,1.20234c0.59007,0.22969 1.963,0.34453 4.11885,0.34453c3.72627,0 5.58938,1.27968 5.58938,3.83907c0,1.8 -0.77591,3.22968 -2.32775,4.28906c-1.55183,1.05938 -3.43817,1.58906 -5.65907,1.58906c-4.34886,0 -6.52326,-1.37811 -6.52326,-4.13438c0,-0.85312 0.24392,-1.57734 0.73177,-2.17265c0.48786,-0.59532 1.05237,-0.95859 1.69354,-1.08985l0,-0.21093c-0.78056,-0.49688 -1.17084,-1.25625 -1.17084,-2.27813c0,-1.03125 0.53431,-1.89374 1.60294,-2.5875l0,-0.19687c-1.50538,-0.75938 -2.25805,-1.94531 -2.25805,-3.55781c0,-1.37814 0.51804,-2.53125 1.55415,-3.45938c1.03611,-0.92813 2.63671,-1.39219 4.80185,-1.39219c1.4775,0 2.67621,0.28125 3.59616,0.84375l0.19514,0c0.26948,-1.77188 1.17083,-2.65781 2.70409,-2.65781c0.60401,0 1.13367,0.10781 1.589,0.32344l0,0zm-3.9725,17.73281c0,-0.69375 -0.26251,-1.19531 -0.78753,-1.50469c-0.52503,-0.30937 -1.4287,-0.46406 -2.71106,-0.46406c-1.04076,0 -2.09079,-0.04687 -3.15013,-0.14062c-0.81773,0.4875 -1.22659,1.21405 -1.22659,2.17968c0,1.80001 1.18941,2.7 3.56828,2.7c1.32882,0 2.37885,-0.25312 3.15012,-0.75937c0.77128,-0.50625 1.15691,-1.17656 1.15691,-2.01094l0,0zm-1.64476,-11.57344c0,-0.84375 -0.26948,-1.48593 -0.80844,-1.92656c-0.53896,-0.44063 -1.1569,-0.66094 -1.85383,-0.66094c-0.69693,0 -1.3079,0.21328 -1.83293,0.63985c-0.52502,0.42656 -0.78753,1.05234 -0.78753,1.87734c0,0.83438 0.26948,1.46719 0.80844,1.89844c0.53896,0.43125 1.16619,0.64687 1.88171,0.64687c0.67835,0 1.28003,-0.20859 1.80505,-0.62578c0.52502,-0.41719 0.78753,-1.03359 0.78753,-1.84922l0,0z"/>
       <path id="Combined-Shape" d="m61.69807,12.50938c0,0.47812 -0.02788,1.10155 -0.08364,1.87031l-8.97646,0.15469c0.1301,1.05938 0.58078,1.94062 1.35205,2.64374c0.77127,0.70313 1.78413,1.05469 3.03861,1.05469c1.39387,0 2.87599,-0.21093 4.44642,-0.63281l-0.27877,2.72813c-1.28236,0.46875 -2.87135,0.70312 -4.76701,0.70312c-2.39745,0 -4.235,-0.67968 -5.51271,-2.03906c-1.27771,-1.35938 -1.91656,-2.99531 -1.91656,-4.90782c0,-1.99688 0.60632,-3.72889 1.81899,-5.19609c1.21266,-1.46719 2.89689,-2.20078 5.05274,-2.20078c1.97,0 3.43354,0.53906 4.39066,1.61719c0.95712,1.07813 1.43568,2.47968 1.43568,4.20469zm-3.26164,-0.12657c0,-2.15626 -0.91064,-3.23437 -2.73196,-3.23437c-1.73769,0 -2.76914,1.11561 -3.09437,3.34687l5.82633,-0.1125z"/>
       <path id="Combined-Shape" d="m93.84048,5.32344l-0.30665,2.61562c-1.44962,0 -2.35562,0.21094 -2.71803,0.63282l0,0.18281c0.54826,0.70313 0.82238,1.49062 0.82238,2.3625c0,1.34063 -0.49017,2.48437 -1.47052,3.43125c-0.98035,0.94688 -2.44157,1.42031 -4.38369,1.42031c-0.94783,0 -1.72374,-0.075 -2.32775,-0.225c-0.4925,0.225 -0.73874,0.52031 -0.73874,0.88594c0,0.57188 0.29503,0.97265 0.8851,1.20234c0.59007,0.22969 1.96301,0.34453 4.11885,0.34453c3.72628,0 5.58938,1.27968 5.58938,3.83907c0,1.8 -0.7759,3.22968 -2.32774,4.28906c-1.55184,1.05938 -3.43818,1.58906 -5.65908,1.58906c-4.34886,0 -6.52326,-1.37811 -6.52326,-4.13438c0,-0.85312 0.24392,-1.57734 0.73178,-2.17265c0.48785,-0.59532 1.05236,-0.95859 1.69354,-1.08985l0,-0.21093c-0.78057,-0.49688 -1.17085,-1.25625 -1.17085,-2.27813c0,-1.03125 0.53431,-1.89374 1.60294,-2.5875l0,-0.19687c-1.50537,-0.75938 -2.25805,-1.94531 -2.25805,-3.55781c0,-1.37814 0.51805,-2.53125 1.55415,-3.45938c1.03611,-0.92813 2.63671,-1.39219 4.80185,-1.39219c1.4775,0 2.67621,0.28125 3.59616,0.84375l0.19514,0c0.26948,-1.77188 1.17084,-2.65781 2.70409,-2.65781c0.60401,0 1.13367,0.10781 1.589,0.32344zm-5.61726,6.15937c0,-0.84375 -0.26947,-1.48593 -0.80843,-1.92656c-0.53897,-0.44063 -1.15691,-0.66094 -1.85384,-0.66094c-0.69693,0 -1.3079,0.21328 -1.83292,0.63985c-0.52503,0.42656 -0.78754,1.05234 -0.78754,1.87734c0,0.83438 0.26948,1.46719 0.80844,1.89844c0.53896,0.43125 1.1662,0.64687 1.88171,0.64687c0.67835,0 1.28003,-0.20859 1.80505,-0.62578c0.52503,-0.41719 0.78753,-1.03359 0.78753,-1.84922zm1.64476,11.57344c0,-0.69375 -0.26251,-1.19531 -0.78753,-1.50469c-0.52503,-0.30937 -1.4287,-0.46406 -2.71106,-0.46406c-1.04075,0 -2.09078,-0.04687 -3.15012,-0.14062c-0.81774,0.4875 -1.2266,1.21405 -1.2266,2.17968c0,1.80001 1.18941,2.7 3.56828,2.7c1.32882,0 2.37885,-0.25312 3.15013,-0.75937c0.77127,-0.50625 1.1569,-1.17656 1.1569,-2.01094z"/>
      </g>
      <g id="Page-1">
       <path id="Combined-Shape" d="m12.2,15.17263l0.8,-1.37933l4,6.89665l-8,0l3.2,-5.51732l-3.2,5.51743l-4,-6.89678l4,-6.89665l4.00004,-6.89658l7.99987,0l-1.59995,2.75866l1.6,-2.75866l4.00013,6.89665l-8.00009,0l-7.99995,0l3.99995,6.89658l-0.8,1.37935zm10.92364,8.75315l-2.12364,3.66221l-4,-6.89798l8,0l-1.87636,3.23577l1.87645,-3.23583l3.99987,6.89798l-8,0l2.12368,-3.66215zm5.87636,-10.1325l4,-6.89665l4,6.89665l-8,0zm-12,-6.89663l-4,6.89665l-4,-6.89665l8,0zm3.99996,-6.8966l8,0l4,6.89665l-7.99987,0l-4.00013,-6.89665zm12.00004,6.8966l-4,6.89665l-4,-6.89665l8,0zm-24.00004,13.79336l8,0l4,6.89798l-7.99987,0l-4.00013,-6.89798z"/>
       <polygon points="19.232437133789062,17.241722106933594 17.232437133789062,13.793262481689453 19.232437133789062,10.344804763793945 23.232437133789062,10.344804763793945 25.232437133789062,13.793262481689453 23.232437133789062,17.241722106933594 " id="Fill-12"/>
      </g>
     </g>
    </g>
   </g>
  </g>
  <text font-weight="bold" xml:space="preserve" text-anchor="start" font-family="'Palatino Linotype', 'Book Antiqua', Palatino, serif" font-size="18" id="svg_1" y="39.85" x="7.4" stroke-width="0" stroke="#000" fill="#494949">commerce</text>
 </g>
</svg>