<svg width="32" height="32" xmlns="http://www.w3.org/2000/svg" version="1.1">
 <!-- Generator: Sketch Beta 42 (36780) - http://www.bohemiancoding.com/sketch -->
 <title>Logo</title>
 <desc>Created with Sketch Beta.</desc>

 <g>
  <title>background</title>
  <rect fill="none" id="canvas_background" height="34" width="34" y="-1" x="-1"/>
 </g>
 <g>
  <title>Layer 1</title>
  <g fill-rule="evenodd" fill="none" id="Page-1">
   <g fill="#494949" id="Developer-Copy-3">
    <g id="logo">
     <g id="Logo">
      <g id="Page-1">
       <path id="Combined-Shape" d="m7.2,17.422605l0.8,-1.37933l4,6.89665l-8,0l3.2,-5.51732l-3.2,5.51743l-4,-6.89678l4,-6.89665l4.00004,-6.89658l7.99987,0l-1.59995,2.75866l1.6,-2.75866l4.00013,6.89665l-8.00009,0l-7.99995,0l3.99995,6.89658l-0.8,1.37935zm10.92364,8.75315l-2.12364,3.66221l-4,-6.89798l8,0l-1.87636,3.23577l1.87645,-3.23583l3.99987,6.89798l-8,0l2.12368,-3.66215zm5.87636,-10.1325l4,-6.89665l4,6.89665l-8,0zm-12,-6.89663l-4,6.89665l-4,-6.89665l8,0zm3.99996,-6.8966l8,0l4,6.89665l-7.99987,0l-4.00013,-6.89665zm12.00004,6.8966l-4,6.89665l-4,-6.89665l8,0zm-24.00004,13.79336l8,0l4,6.89798l-7.99987,0l-4.00013,-6.89798z"/>
       <polygon points="14.232437133789062,19.491694152355194 12.232437133789062,16.043239295482635 14.232437133789062,12.594780623912811 18.232437133789062,12.594780623912811 20.232437133789062,16.043239295482635 18.232437133789062,19.491694152355194 " id="Fill-12"/>
      </g>
     </g>
    </g>
   </g>
  </g>
 </g>
</svg>